<?xml version="1.0" encoding="utf-8"?>
<!-- Generator: Adobe Illustrator 18.1.0, SVG Export Plug-In . SVG Version: 6.00 Build 0)  -->
<svg version="1.1" id="Laag_1" xmlns="http://www.w3.org/2000/svg" xmlns:xlink="http://www.w3.org/1999/xlink" x="0px" y="0px"
	 viewBox="0 0 1710.4 285.5" enable-background="new 0 0 1710.4 285.5" xml:space="preserve">
<g>
	<path d="M89.2,125.3c0-13.2,0-34.4-0.2-36.6c-0.4-3.4-2.6-4.4-7-4.4H71.6c-0.8,0-1.2-0.4-1.2-1.4v-5c0-1.2,0.4-1.6,1.2-1.6
		c2.4,0,9.6,0.6,29.6,0.6c3.6,0,15.2-0.6,22-0.6c24,0,35.6,2.2,47.2,10.2c9.2,6.8,15.2,18,15.2,30.4c0,24.8-19.2,40.4-53.2,40.4
		c-6.8,0-12.8,0-18-0.8v8.8c0,9.6,0,36.8,0.2,39.4c0.6,4.4,2.6,6.4,6.2,6.4H132c1.6,0,1.6,0.8,1.6,1.4v4.6c0,1.2,0,2-1.6,2
		c-2.8,0-9.2-0.6-30.8-0.6c-17.6,0-25.6,0.6-27.6,0.6c-1.6,0-1.6-0.8-1.6-1.4v-5c0-1.2,0-1.6,1.2-1.6h6.4c6.8,0,8.4-0.8,9-6.2
		c0.2-2,0.6-33.2,0.6-56.4V125.3z M114.4,149.3c3.6,1.2,9.2,1.6,14.4,1.6c8.8,0,19.2-6.8,24-13.6c4-6,4.8-13.6,4.8-20.8
		c0-27.2-22-33.4-31.6-33.4c-3.6,0-8.4-0.2-11.6,1.4V149.3z"/>
	<path d="M223,163.5c-1.6,4.6-11.4,33.2-12.4,38.6c-0.4,1.6-0.4,3.2-0.4,4.2c0,2.6,3.2,4.8,7.2,4.8h8.4c1.6,0,2,0.4,2,1v5
		c0,1.2-0.4,2-1.6,2c-2.8,0-11.2-0.6-25.2-0.6c-14.8,0-19.2,0.6-22,0.6c-1.2,0-1.2-1.2-1.2-2.6v-3.8c0-1.2,0.4-1.6,1.2-1.6h6
		c5.6,0,9.2-2.8,12.8-9c2-3.6,16.4-39.6,22.4-56.4c1.4-4,17.6-47.2,19.6-52.4c0.4-2,1.6-5.6,0.4-6.8c-0.6-0.6-1.2-1.8-1.2-2.4
		c0-0.8,0.4-1.6,2-2c6.4-1.6,17.4-7.6,19.8-10c1.2-1.2,2-2,3-2c1.2,0,2,2.4,2.4,3.6c3.6,12.4,19.2,57.2,22.8,70
		c4.8,15.6,17.6,52.8,20.4,58.2c3.6,6.8,8.8,9.2,12.8,9.2h6.4c1.2,0,1.6,0.4,1.6,1.4v4.2c0,1.2-0.4,2.4-2,2.4
		c-3.6,0-7.6-0.6-29.6-0.6c-16.8,0-23.6,0.6-28,0.6c-1.6,0-2-1.2-2-2.4v-4c0-1.2,0.4-1.6,1.6-1.6h5.2c5.6,0,7.2-2,6-7.4
		c-1.6-7.2-9.6-32.8-12-40.2H223z M267.4,155.5c-2-5.8-15.6-51.4-16.8-55.4c-0.8-2.4-1.2-3.6-2-3.6c-1.2,0-2,0.8-2.6,2.6
		c-0.8,2.6-18.8,51.8-20.2,56.4H267.4z"/>
	<path d="M349.6,94.3c0-6.8-1.6-10-6.8-10h-9.2c-1.2,0-1.6-0.4-1.6-1.8v-4.6c0-1.2,0.4-1.6,2-1.6c2,0,11.6,0.6,30.8,0.6
		c16.8,0,26.4-0.6,28.8-0.6c1.2,0,1.6,0.4,1.6,1.4v5c0,1.2-0.4,1.6-1.6,1.6h-8.4c-6,0-9.6,3.6-9.8,7.8c-0.2,2.4-0.6,14.4-0.6,26
		v24.8c0,10,0.2,24.2,0.6,30.6c0.6,9.2,2.2,18.4,7,24.8c6.8,9.2,17.6,12.4,27.2,12.4c9.2,0,20.4-3.6,26.8-9.6
		c7.6-7.6,11.6-19.2,11.6-33.8v-36c0-16-1.6-33.6-2.2-38.2c-0.6-5.2-3.8-8.8-8.2-8.8h-7.2c-1.2,0-1.6-0.6-1.6-1.4v-5
		c0-1.2,0.4-1.6,1.6-1.6c2,0,11.2,0.6,24.4,0.6c12.4,0,18.8-0.6,20.4-0.6c1.8,0,2,0.6,2,1.6v4.6c0,1.2-0.2,1.8-1.2,1.8h-7.2
		c-7.2,0-8,5.6-8.4,7.8c-0.4,2.4-0.4,30.4-0.4,33c0,2.8-0.4,37.6-1.2,45.6c-1.2,16.4-6,28.8-16.8,38.4c-8.4,7.6-21.2,12.4-36.4,12.4
		c-9.6,0-21.2-1.6-28.8-4.8c-11.6-4.8-19.6-14-23.6-26.8c-2.8-8.8-3.6-22-3.6-48.2V94.3z"/>
	<path d="M614.4,177.3c0.4,0.4,0.4,0.8,0.4,2c-0.8,1.2-8.8,34.4-10,39.8c-5.2-0.2-62.8-0.6-83.2-0.6c-18,0-25.2,0.6-27.6,0.6
		c-1.6,0-1.6-0.4-1.6-1.8v-4.6c0-1.2,0-1.6,1.2-1.6h8c7.2,0,8.4-2.8,8.4-5.4c0-3.6,0.8-53.6,0.8-65.6v-11.2c0-12.8-0.4-34-0.8-37.4
		c-0.4-5.2-1.2-7.2-6.4-7.2h-8.4c-1.2,0-1.6-1.2-1.6-1.8v-4.6c0-1.2,0.4-1.6,1.6-1.6c2,0,9.2,0.6,27.6,0.6c21.6,0,30-0.6,31.6-0.6
		c1.6,0,2,0.8,2,1.8v4.6c0,0.8-0.4,1.6-2,1.6h-10.8c-6,0-6.8,2-6.8,7.4c0,2.8-0.8,32.8-0.8,46.8v17.2c0,3.6,0,46.8,0.8,55.4H548
		c11.2,0,25.6,0,33.6-1c11.2-1.6,24-25.6,26.8-33.2c0.8-0.8,1.2-1.2,2.4-0.8L614.4,177.3z"/>
	<path d="M683.6,91.5c-2-5.6-5.2-7.2-8.4-7.2h-5.6c-0.8,0-1.2-0.6-1.2-1.4v-5.2c0-1,0.6-1.4,1.6-1.4c1.6,0,7.6,0.6,25.6,0.6
		c14.4,0,22.8-0.6,24.8-0.6c1.2,0,1.6,0.4,1.6,1.4v5c0,1-0.4,1.6-1.8,1.6h-3.8c-4,0-6.2,2.8-4.8,7l29.4,92.4l0.4,0.2
		c1.6-4.2,28.2-77.8,28.6-85.4c0-3.6-1.6-8-3.6-10.6c-1.6-2.4-4.4-3.6-6.8-3.6h-4.2c-0.8,0-1.4-0.4-1.4-1.4v-5c0-1,0.4-1.6,1.6-1.6
		c1.6,0,8.8,0.6,26,0.6c16.8,0,24.4-0.6,26.2-0.6c1.2,0,1.4,0.6,1.4,1.8v4.6c0,1-0.4,1.6-1.4,1.6h-7c-4,0-5.4,4.4-4.4,7.8l28.8,92.4
		h0.8c6-17.6,28.8-83.6,28.8-94.6c0-2.8-2-5.6-6.8-5.6h-5.4c-1.2,0-1.4-0.6-1.4-1.6v-4.8c0-1,0.4-1.6,1.6-1.6c2,0,8.8,0.6,21.2,0.6
		c11.2,0,17.2-0.6,18.8-0.6c0.8,0,1.2,0.4,1.2,1v5.4c0,1-0.2,1.6-1.4,1.6h-4.2c-3.2,0-6.8,2-8.8,6.6c-2,4.4-42.8,116.4-46.8,126.4
		c-0.8,2-2.4,5.2-5.2,5.2c-2.8,0-4.2-2-5-4.4l-36.2-105.2h-0.8c-1.8,5.6-37.2,103.6-38,105.8c-0.8,2-2.8,3.8-5.2,3.8
		c-2,0-3.4-1.2-4-3.2L683.6,91.5z"/>
	<path d="M905,163.5c-1.6,4.6-11.4,33.2-12.4,38.6c-0.4,1.6-0.4,3.2-0.4,4.2c0,2.6,3.2,4.8,7.2,4.8h8.4c1.6,0,2,0.4,2,1v5
		c0,1.2-0.4,2-1.6,2c-2.8,0-11.2-0.6-25.2-0.6c-14.8,0-19.2,0.6-22,0.6c-1.2,0-1.2-1.2-1.2-2.6v-3.8c0-1.2,0.4-1.6,1.2-1.6h6
		c5.6,0,9.2-2.8,12.8-9c2-3.6,16.4-39.6,22.4-56.4c1.4-4,17.6-47.2,19.6-52.4c0.4-2,1.6-5.6,0.4-6.8c-0.6-0.6-1.2-1.8-1.2-2.4
		c0-0.8,0.4-1.6,2-2c6.4-1.6,17.4-7.6,19.8-10c1.2-1.2,2-2,3-2c1.2,0,2,2.4,2.4,3.6c3.6,12.4,19.2,57.2,22.8,70
		c4.8,15.6,17.6,52.8,20.4,58.2c3.6,6.8,8.8,9.2,12.8,9.2h6.4c1.2,0,1.6,0.4,1.6,1.4v4.2c0,1.2-0.4,2.4-2,2.4
		c-3.6,0-7.6-0.6-29.6-0.6c-16.8,0-23.6,0.6-28,0.6c-1.6,0-2-1.2-2-2.4v-4c0-1.2,0.4-1.6,1.6-1.6h5.2c5.6,0,7.2-2,6-7.4
		c-1.6-7.2-9.6-32.8-12-40.2H905z M949.4,155.5c-2-5.8-15.6-51.4-16.8-55.4c-0.8-2.4-1.2-3.6-2-3.6c-1.2,0-2,0.8-2.6,2.6
		c-0.8,2.6-18.8,51.8-20.2,56.4H949.4z"/>
	<path d="M1067.8,166.1c0,12,0.4,34.4,0.8,37.4c0.6,4,2,7.6,5.2,7.6h10c1.2,0,1.6,0.6,1.6,1.4v4.8c0,1.4-0.6,1.8-2.2,1.8
		c-2.6,0-6.6-0.6-27.4-0.6c-19.6,0-24.4,0.6-26.4,0.6c-1.2,0-1.6-0.6-1.6-1.8v-4.6c0-1,0.4-1.6,1.2-1.6h6.8c4.4,0,7.6-1.2,7.6-6.6
		c0.4-20,0.4-38.8,0.4-57.6V94.3c0-6.8-2.8-10-6.4-10h-7.8c-1,0-1.4-0.4-1.4-1.2v-5.4c0-1,0.4-1.4,1.4-1.4c1.4,0,7.8,0.6,27.4,0.6
		c11.2,0,29.6-0.6,35.6-0.6c16,0,28.4,5.4,36.4,12.6c7.2,6.4,10.8,14.8,10.8,22.4c0,25.2-15.2,35.6-37.2,39.2v0.8
		c5.6,2,9.2,5.6,12,9.2c2.4,3.2,14.8,22,16.4,24.4c1.2,2,14,20,17,22.8c3.8,3.4,9.4,3.8,14.2,3.8c1.2,0,1.6,0.6,1.6,1.4v4.2
		c0,1.4-0.4,2-1.6,2c-1.6,0-6.8-0.6-19.6-0.6c-5.6,0-13.2,0.4-17.6,0.6c-2.4-1.8-6.2-7.2-8.8-11.4c-3.6-5.6-11.4-20-13.2-23.2
		c-2-3.6-7.6-12.8-10.8-17.2c-5-7-9.6-12.4-18-12.4c-0.8,0-4.2,0.2-6.4,0.4V166.1z M1068.2,148.1c2.8,0.4,5.2,0.8,7.6,0.8
		c31.2,0,37.6-25.2,37.6-34.4c0-9.2-3.8-17.8-8.8-22.4c-7.2-6.4-16.4-8.6-26.4-8.6c-3.2,0-5.6,0.2-7.2,1.2s-2.4,3.4-2.4,5.8
		L1068.2,148.1z"/>
	<path d="M1316.4,146.1c0-6,0-55.6-0.4-56.4h-0.8c-1.6,2.8-26.8,61.2-29.2,66.4c-3,6.4-23.4,53.6-24.4,55.6
		c-0.8,1.6-2.4,4.4-4.4,4.4c-1.2,0-2.4-1.2-3.2-3.6c-0.8-1.2-26.8-63.6-28-66.8c-3.6-9.2-22-54-24.4-56.4c-0.8,2.8-1,53.2-1,55.6
		c0,2.4-0.2,36.4,1,49.4c0.8,9.2,3.2,16.8,9.6,16.8h8.8c1.2,0,1.6,0.8,1.6,1.4v5c0,0.8-0.4,1.6-2,1.6c-2,0-7.6-0.6-22.8-0.6
		c-17.2,0-24,0.6-26,0.6c-1.6,0-1.6-0.4-1.6-1.8v-5c0-0.4,0-1.2,1.2-1.2h9.2c6.8,0,9-7.2,10-14.2c1.8-14,3-63.2,3-66.8V95.9
		c0-7.2-1-11.6-9.8-11.6h-8.8c-1.2,0-1.6-0.8-1.6-1.4v-5.4c0-0.4,0.4-1.2,1.6-1.2c2,0,7.2,0.6,28.4,0.6c9.6,0,15.2-0.6,17.6-0.6
		s3.8,0.8,4.8,3.4c7.2,18.8,35.2,85.2,41.2,101.6c1.8-3.6,16-36.6,21.2-48.4c3.6-8.4,21.6-49.6,22.6-53.6c0.6-2,3-2.4,7.8-2.4
		c29.2,0.2,36-0.6,38.4-0.6c0.8,0,1.2,0.8,1.2,1.8v4.2c0,1.2-0.4,2-1.6,2h-8.8c-5.2,0-5.6,3.6-5.8,7.8c-0.2,4.4-0.2,44.4-0.2,49.6
		v14c0,12,0.4,41.2,0.4,44.6c0.2,7.6,2,10.8,5.6,10.8h10.8c1.2,0,1.2,0.8,1.2,1.4v4.6c0,1.2,0,2-1.6,2c-2.4,0-12-0.6-29.6-0.6
		c-19.6,0-27.2,0.6-30,0.6c-1.2,0-1.6-0.8-1.6-1.8v-4.6c0-1.2,0.4-1.6,1.6-1.6h12.4c3.6,0,5.2-1.2,5.8-7c0.2-2,0.6-30.8,0.6-46.8
		V146.1z"/>
	<path d="M1424.2,160.5c0.2,10.8,0.6,30.4,0.6,34c0,10.4,3.6,14.4,8,15.6c3.2,0.8,8,1.6,15.6,1.6c3.6,0,12.8-0.4,16.8-0.8
		c3.6-0.4,11.2-2.4,16.4-6.8c3.6-3.2,14.8-16.4,18.6-21.2c0.8-1,1.4-1.2,2.2-0.8l3.2,2c0.6,0.4,0.8,1,0.4,2l-9.6,30
		c-0.6,1.8-2,3-4.4,3c-1,0-5.4-0.2-17.8-0.4c-12.6,0-33.2-0.2-66.6-0.2c-7.4,0-12.8,0.2-17,0.2c-4,0.2-6.8,0.4-8.6,0.4
		c-1.2,0-1.6-0.4-1.6-1.6v-4.8c0-1.2,0.4-1.6,2-1.6h6.8c9.2,0,10-1.2,10-8.6v-47.6v-19.6c0-16.4-0.4-41.2-0.8-44
		c-0.8-5.4-2.8-7-8.8-7h-7.6c-0.8,0-1.2-0.4-1.2-1.4v-5.2c0-1,0.2-1.4,1.2-1.4c4.4,0,11.6,0.8,28,0.6h5.6c8.8,0,54.8-0.4,63.6-0.4
		c3.2,0,7-0.2,8-0.2s1.4,0.4,1.6,1.2c0.8,2.6,8.4,29.8,9.2,31.8c0.4,1.2,0.2,1.8-0.6,2.2l-3.6,1.6c-0.6,0.2-1.2,0-1.8-1
		c-0.8-1.2-17.2-19.6-22-22.4c-4.2-2.4-9.6-5-15.2-5.2l-30.4-0.8l-0.4,57.8c6,0,20.4-0.4,22.8-1c4.4-0.8,6.8-2.4,9.2-7.2
		c1.2-2.6,3.2-7.6,3.2-11.2c0-1.2,0.8-1.6,1.6-1.6l5.2,0.4c0.8,0,1.4,0.4,1.2,1.6c-0.4,3.2-0.4,16.4-0.4,21.6c0,8,0.8,17.6,1.2,22
		c0,1-0.4,1.2-1.6,1.4l-4.4,0.8c-0.8,0.2-1.2-0.2-1.6-1.4c-0.8-3.2-2.2-7.6-3.2-10c-1.8-4-5.6-6.8-10-7.2
		c-7.2-0.8-16.8-1.2-23.2-1.2L1424.2,160.5z"/>
	<path d="M1562.2,166.1c0,12,0.4,34.4,0.8,37.4c0.6,4,2,7.6,5.2,7.6h10c1.2,0,1.6,0.6,1.6,1.4v4.8c0,1.4-0.6,1.8-2.2,1.8
		c-2.6,0-6.6-0.6-27.4-0.6c-19.6,0-24.4,0.6-26.4,0.6c-1.2,0-1.6-0.6-1.6-1.8v-4.6c0-1,0.4-1.6,1.2-1.6h6.8c4.4,0,7.6-1.2,7.6-6.6
		c0.4-20,0.4-38.8,0.4-57.6V94.3c0-6.8-2.8-10-6.4-10h-7.8c-1,0-1.4-0.4-1.4-1.2v-5.4c0-1,0.4-1.4,1.4-1.4c1.4,0,7.8,0.6,27.4,0.6
		c11.2,0,29.6-0.6,35.6-0.6c16,0,28.4,5.4,36.4,12.6c7.2,6.4,10.8,14.8,10.8,22.4c0,25.2-15.2,35.6-37.2,39.2v0.8
		c5.6,2,9.2,5.6,12,9.2c2.4,3.2,14.8,22,16.4,24.4c1.2,2,14,20,17,22.8c3.8,3.4,9.4,3.8,14.2,3.8c1.2,0,1.6,0.6,1.6,1.4v4.2
		c0,1.4-0.4,2-1.6,2c-1.6,0-6.8-0.6-19.6-0.6c-5.6,0-13.2,0.4-17.6,0.6c-2.4-1.8-6.2-7.2-8.8-11.4c-3.6-5.6-11.4-20-13.2-23.2
		c-2-3.6-7.6-12.8-10.8-17.2c-5-7-9.6-12.4-18-12.4c-0.8,0-4.2,0.2-6.4,0.4V166.1z M1562.6,148.1c2.8,0.4,5.2,0.8,7.6,0.8
		c31.2,0,37.6-25.2,37.6-34.4c0-9.2-3.8-17.8-8.8-22.4c-7.2-6.4-16.4-8.6-26.4-8.6c-3.2,0-5.6,0.2-7.2,1.2s-2.4,3.4-2.4,5.8
		L1562.6,148.1z"/>
</g>
</svg>
